# xmcd
#
# Track frame offsets:
#	150
#	14162
#	27410
#	38735
#	49955
#	62595
#	71522
#	84352
#	89430
#	105957
#	113182
#	123687
#	131087
#	143225
#	152295
#	160545
#	173772
#	191412
#	203375
#	212222
#	223837
#	230575
#	241662
#	251650
#	263615
#	271937
#	280427
#	291085
#	298120
#	310357
#
# Disc length: 4278 seconds
#
# Revision: 1987199810
# Processed by: cddbd v1.5.2PL0 Copyright (c) Steve Scherf et al.
# Submitted via: EZCDAudioConverter 2.1.5.1
#
DISCID=b810b41e
DTITLE=Various Artist - Heart of Bluegrass
DYEAR=1900
DGENRE=Country
TTITLE0=Buddy Spicher - Hornpipe Melody: Sailor's, Durang's, Rickett's, and Fi
TTITLE0=sher's Hornpipe
TTITLE1=Charlie Cushman - Star-Spangled Banner
TTITLE2=Josh Graves and Bobby Smith - Gretna Green
TTITLE3=Heights of Grass - Bile 'Em Cabbage Down
TTITLE4=Joe Maphis and Merle Travis - Lonesome Road Blues
TTITLE5=Grandpa Jones Family - Autoharp Concerto
TTITLE6=Benny Martin - Wabash Cannonball
TTITLE7=Chubby Wisw - Chicken Reel
TTITLE8=Gospel Guitars - Amazing Grace
TTITLE9=Ramona Jones - Whiskey Before Breakfast
TTITLE10=The Osborne Brothers - Jesse James
TTITLE11=Joe Maphis and Merle Travis - John Henry
TTITLE12=Various Artist - Wheels
TTITLE13=Benny Martin - Devil's Dream
TTITLE14=Joe Maphis - Liberty
TTITLE15=Chubb Anthony - Lee Highway Blues
TTITLE16=Mark Thornton - Bolero
TTITLE17=Benny Martin and Buddy Spicher - Down Yonder
TTITLE18=Grandpa Jones Family - Greensleeves
TTITLE19=The Pinnacle Boys - Latin Leprechaun
TTITLE20=Josh Graves and Benny Martin - Salty Dog Blues
TTITLE21=Jim and Jesse McReynolds - The Girl I Left Behind
TTITLE22=Johnny Gimble - Flower of Mexico
TTITLE23=The Osborne Brothers - Reuben
TTITLE24=Joe Maphis - Carter Country
TTITLE25=Vassar Clements and Josh Graves - Katy Hill
TTITLE26=Arthur Smith and Benny Martin - Dixie
TTITLE27=Ramona Jones - Cluck Ol' Hen
TTITLE28=Arthur Smith and Joe Maphis - Expressway Shuffle
TTITLE29=Benny Martin - Home Sweet Home
EXTD=
EXTT0=
EXTT1=
EXTT2=
EXTT3=
EXTT4=
EXTT5=
EXTT6=
EXTT7=
EXTT8=
EXTT9=
EXTT10=
EXTT11=
EXTT12=
EXTT13=
EXTT14=
EXTT15=
EXTT16=
EXTT17=
EXTT18=
EXTT19=
EXTT20=
EXTT21=
EXTT22=
EXTT23=
EXTT24=
EXTT25=
EXTT26=
EXTT27=
EXTT28=
EXTT29=
PLAYORDER=
